<svg id="Layer_1" data-name="Layer 1" xmlns="http://www.w3.org/2000/svg" viewBox="0 0 447.16 209.9"><defs><style>.cls-1{fill:#2a3736;}.cls-2{fill:#de1e4e;}.cls-3{font-size:22.29px;fill:#166734;font-family:LucidaCalligraphy-Italic, Lucida Calligraphy;font-style:italic;}</style></defs><polygon class="cls-1" points="93.58 35.3 136.62 25.4 136.62 132.29 193.21 144.82 194.17 10.89 227.47 0 227.47 177.16 0 111.5 0 61.69 41.67 51.79 40.98 105.9 92.9 121.07 93.58 35.3"/><polygon class="cls-2" points="247.28 0 379.11 37.61 379.11 64.33 341.54 64.33 341.54 47.17 288.94 35.96 287.58 79.5 379.11 79.5 379.11 138.56 247.28 177.16 247.28 117.11 286.21 117.11 286.21 144.5 343.59 131.63 341.54 98.64 247.28 98.97 247.28 0"/><text class="cls-3" transform="translate(8.99 202.65) scale(2.07 1)">PROGRAMMER</text></svg>